<?xml version="1.0" encoding="UTF-8" standalone="no"?>
<!-- Created with Inkscape (http://www.inkscape.org/) -->

<svg
   width="1000"
   height="250"
   viewBox="0 0 264.58333 66.145833"
   version="1.1"
   id="svg5"
   inkscape:version="1.2.2 (b0a8486541, 2022-12-01)"
   sodipodi:docname="rsms_logo_v1.svg"
   inkscape:export-filename="rsms_logo_v1.png"
   inkscape:export-xdpi="96"
   inkscape:export-ydpi="96"
   xmlns:inkscape="http://www.inkscape.org/namespaces/inkscape"
   xmlns:sodipodi="http://sodipodi.sourceforge.net/DTD/sodipodi-0.dtd"
   xmlns="http://www.w3.org/2000/svg"
   xmlns:svg="http://www.w3.org/2000/svg">
  <sodipodi:namedview
     id="namedview7"
     pagecolor="#505050"
     bordercolor="#eeeeee"
     borderopacity="1"
     inkscape:showpageshadow="0"
     inkscape:pageopacity="0"
     inkscape:pagecheckerboard="0"
     inkscape:deskcolor="#505050"
     inkscape:document-units="px"
     showgrid="false"
     showguides="true"
     inkscape:zoom="1.0708779"
     inkscape:cx="467.84045"
     inkscape:cy="143.34034"
     inkscape:window-width="1920"
     inkscape:window-height="1015"
     inkscape:window-x="0"
     inkscape:window-y="28"
     inkscape:window-maximized="1"
     inkscape:current-layer="layer2">
    <sodipodi:guide
       position="57.496115,58.513611"
       orientation="192.30761,-38.461523"
       id="guide696"
       inkscape:locked="false" />
    <sodipodi:guide
       position="61.712001,7.6322217"
       orientation="-51.09888,10.164832"
       id="guide700"
       inkscape:locked="false" />
    <sodipodi:guide
       position="66.582077,32.273352"
       orientation="-56.318658,11.538456"
       id="guide712"
       inkscape:locked="false" />
    <sodipodi:guide
       position="55.931953,60.471652"
       orientation="0.98058068,-0.19611609"
       id="guide730"
       inkscape:label=""
       inkscape:locked="false"
       inkscape:color="rgb(0,134,229)" />
  </sodipodi:namedview>
  <defs
     id="defs2" />
  <g
     inkscape:groupmode="layer"
     id="layer2"
     inkscape:label="Layer 2">
    <g
       aria-label="RSMS"
       id="text237"
       style="font-style:italic;font-weight:800;font-size:72.6877px;font-family:Montserrat;-inkscape-font-specification:'Montserrat Ultra-Bold Italic';fill:#ffffff;stroke-width:6.05731">
      <path
         d="m 99.727667,23.841579 c 0,-10.176278 -7.486833,-16.209357 -20.497931,-16.209357 H 57.496115 L 47.319837,58.513611 h 14.392164 l 2.689445,-13.519912 h 7.26877 l 7.55952,13.519912 H 94.27609 L 85.626254,43.249194 C 94.494153,40.196311 99.727667,33.218292 99.727667,23.841579 Z m -14.537539,1.381066 c 0,5.596953 -3.707073,8.649836 -10.030903,8.649836 H 66.582077 L 69.63496,18.971503 h 7.559521 c 4.942763,0 7.995647,1.962568 7.995647,6.251142 z"
         id="path448" />
      <path
         d="m 120.08021,59.531239 c 14.90097,0 24.49575,-7.196083 24.49575,-18.099237 0,-15.700543 -24.78651,-11.70272 -24.71382,-18.680739 0,-2.762132 3.19826,-4.942763 9.15865,-4.942763 5.01545,0 9.95822,1.308378 13.95604,3.852448 l 5.23351,-10.685092 c -4.57932,-2.8348201 -11.12121,-4.3612618 -18.3173,-4.3612618 -15.04635,0 -24.42306,7.1960818 -24.42306,18.1719248 0,15.991293 24.71382,12.211533 24.71382,19.044177 0,2.762132 -3.19826,4.506637 -8.72253,4.506637 -5.81501,0 -11.77541,-1.744505 -16.93623,-5.015451 l -5.669642,10.757779 c 4.579322,3.125571 12.502282,5.451578 21.224812,5.451578 z"
         id="path450" />
      <path
         d="M 181.93739,37.07074 170.01661,7.632222 h -11.70272 l -10.17628,50.881389 h 13.22916 l 5.37889,-26.821761 9.23134,21.80631 h 6.32383 l 16.93623,-21.80631 -5.23351,26.821761 H 207.3054 L 217.3363,7.632222 h -12.28422 z"
         id="path452" />
      <path
         d="m 236.45319,59.531239 c 14.90098,0 24.49576,-7.196083 24.49576,-18.099237 0,-15.700543 -24.78651,-11.70272 -24.71382,-18.680739 0,-2.762132 3.19826,-4.942763 9.15865,-4.942763 5.01545,0 9.95821,1.308378 13.95604,3.852448 l 5.23351,-10.685092 c -4.57932,-2.8348201 -11.12122,-4.3612618 -18.3173,-4.3612618 -15.04635,0 -24.42307,7.1960818 -24.42307,18.1719248 0,15.991293 24.71382,12.211533 24.71382,19.044177 0,2.762132 -3.19826,4.506637 -8.72252,4.506637 -5.81502,0 -11.77541,-1.744505 -16.93624,-5.015451 l -5.66964,10.757779 c 4.57933,3.125571 12.50229,5.451578 21.22481,5.451578 z"
         id="path454" />
    </g>
    <path
       id="rect399"
       style="fill:#ffffff;stroke-width:0.200574"
       d="m 29.913203,7.632222 h 23.745043 c 0.785358,0 1.417615,0.9440333 1.417615,2.1166665 0,1.1726335 -0.632257,2.1166665 -1.417615,2.1166665 H 29.913203 c -0.785358,0 -1.417614,-0.944033 -1.417614,-2.1166665 0,-1.1726332 0.632256,-2.1166665 1.417614,-2.1166665 z" />
    <path
       id="rect399-5"
       style="fill:#ffffff;stroke-width:0.204461"
       d="m 27.05717,16.961832 h 24.674237 c 0.816091,0 1.473089,0.944034 1.473089,2.116667 0,1.172634 -0.656998,2.116667 -1.473089,2.116667 H 27.05717 c -0.816091,0 -1.473088,-0.944033 -1.473088,-2.116667 0,-1.172633 0.656997,-2.116667 1.473088,-2.116667 z" />
    <path
       id="rect399-5-6"
       style="fill:#ffffff;stroke-width:0.219239"
       d="M 19.417436,35.621055 H 47.78749 c 0.938329,0 1.693735,0.944034 1.693735,2.116667 0,1.172634 -0.755406,2.116667 -1.693735,2.116667 H 19.417436 c -0.938328,0 -1.693734,-0.944033 -1.693734,-2.116667 0,-1.172633 0.755406,-2.116667 1.693734,-2.116667 z" />
    <path
       id="rect399-5-6-9"
       style="fill:#ffffff;stroke-width:0.227627"
       d="m 15.193157,44.950666 h 30.582209 c 1.011495,0 1.825804,0.944034 1.825804,2.116667 0,1.172634 -0.814309,2.116667 -1.825804,2.116667 H 15.193157 c -1.011494,0 -1.825802,-0.944033 -1.825802,-2.116667 0,-1.172633 0.814308,-2.116667 1.825802,-2.116667 z" />
    <path
       id="rect399-5-6-9-1"
       style="fill:#ffffff;stroke-width:0.236826"
       d="m 10.65703,54.280277 h 33.104175 c 1.094908,0 1.976369,0.944034 1.976369,2.116667 0,1.172634 -0.881461,2.116667 -1.976369,2.116667 H 10.65703 c -1.0949082,0 -1.9763683,-0.944033 -1.9763683,-2.116667 0,-1.172633 0.8814601,-2.116667 1.9763683,-2.116667 z" />
    <path
       id="rect399-5-6-2"
       style="fill:#ffffff;stroke-width:0.21125"
       d="m 23.424136,26.291443 h 26.340083 c 0.871189,0 1.572543,0.944034 1.572543,2.116667 0,1.172634 -0.701354,2.116667 -1.572543,2.116667 H 23.424136 c -0.871189,0 -1.572542,-0.944033 -1.572542,-2.116667 0,-1.172633 0.701353,-2.116667 1.572542,-2.116667 z" />
  </g>
  <g
     inkscape:label="Layer 1"
     inkscape:groupmode="layer"
     id="layer1" />
</svg>
