<?xml version="1.0" encoding="UTF-8" standalone="no"?>
<!-- Created with Inkscape (http://www.inkscape.org/) -->

<svg
   width="128"
   height="128"
   viewBox="0 0 33.866666 33.866666"
   version="1.1"
   id="svg5"
   inkscape:version="1.2.2 (b0a8486541, 2022-12-01)"
   sodipodi:docname="rsms_favicon_v1.svg"
   inkscape:export-filename="rsms_favicon_v1.png"
   inkscape:export-xdpi="96"
   inkscape:export-ydpi="96"
   xmlns:inkscape="http://www.inkscape.org/namespaces/inkscape"
   xmlns:sodipodi="http://sodipodi.sourceforge.net/DTD/sodipodi-0.dtd"
   xmlns="http://www.w3.org/2000/svg"
   xmlns:svg="http://www.w3.org/2000/svg">
  <sodipodi:namedview
     id="namedview7"
     pagecolor="#505050"
     bordercolor="#eeeeee"
     borderopacity="1"
     inkscape:showpageshadow="0"
     inkscape:pageopacity="0"
     inkscape:pagecheckerboard="0"
     inkscape:deskcolor="#505050"
     inkscape:document-units="px"
     showgrid="false"
     showguides="false"
     inkscape:zoom="5.623064"
     inkscape:cx="71.93587"
     inkscape:cy="67.845574"
     inkscape:window-width="1920"
     inkscape:window-height="1011"
     inkscape:window-x="0"
     inkscape:window-y="0"
     inkscape:window-maximized="1"
     inkscape:current-layer="layer2">
    <sodipodi:guide
       position="33.866666,33.866666"
       orientation="0.70710678,-0.70710678"
       id="guide1156"
       inkscape:locked="false"
       inkscape:label=""
       inkscape:color="rgb(0,134,229)" />
    <sodipodi:guide
       position="0,33.866666"
       orientation="-0.70710678,-0.70710678"
       id="guide1158"
       inkscape:locked="false"
       inkscape:label=""
       inkscape:color="rgb(0,134,229)" />
    <sodipodi:guide
       position="-1.5367659,16.961506"
       orientation="0,1"
       id="guide1210"
       inkscape:locked="false"
       inkscape:label=""
       inkscape:color="rgb(0,134,229)" />
    <sodipodi:guide
       position="16.933333,16.933333"
       orientation="-1,0"
       id="guide1212"
       inkscape:locked="false"
       inkscape:label=""
       inkscape:color="rgb(0,134,229)" />
    <sodipodi:guide
       position="2.1166666,31.749999"
       orientation="-1,0"
       id="guide1214"
       inkscape:locked="false"
       inkscape:label=""
       inkscape:color="rgb(0,134,229)" />
    <sodipodi:guide
       position="2.1166666,31.749999"
       orientation="0,1"
       id="guide1216"
       inkscape:locked="false"
       inkscape:label=""
       inkscape:color="rgb(0,134,229)" />
    <sodipodi:guide
       position="2.1166666,2.1166666"
       orientation="0,1"
       id="guide1227"
       inkscape:locked="false"
       inkscape:label=""
       inkscape:color="rgb(0,134,229)" />
  </sodipodi:namedview>
  <defs
     id="defs2" />
  <g
     inkscape:label="Layer 1"
     inkscape:groupmode="layer"
     id="layer1"
     transform="matrix(2.1081504,0,0,1.8298846,-10.735565,-5.4308153)"
     style="fill:#0284c7;fill-opacity:1"
     sodipodi:insensitive="true">
    <rect
       style="fill:#0284c7;fill-opacity:1;stroke-width:6.35;stroke-linecap:round"
       id="rect281"
       width="16.064634"
       height="18.507542"
       x="5.0924096"
       y="2.9678459" />
  </g>
  <g
     inkscape:groupmode="layer"
     id="layer2"
     inkscape:label="Layer 2">
    <g
       aria-label="RS
MS"
       id="text946"
       style="font-weight:bold;font-size:17.7434px;line-height:0.85em;font-family:'Space Mono';-inkscape-font-specification:'Space Mono Bold';fill:#ffffff;stroke-width:1.5969;stroke-linecap:round"
       transform="matrix(1.0795541,0,0,1.0795541,3.1169954,-0.58217097)">
      <path
         d="M 11.751333,14.894003 H 9.4092042 v -3.726114 q 0,-0.425842 -0.2306642,-0.691993 Q 8.9656192,10.209745 8.4510606,10.209745 H 5.7540637 v 4.684258 H 3.4119348 V 2.4736225 h 4.7552314 q 0.9581436,0 1.685623,0.266151 0.7274798,0.266151 1.2065508,0.7452228 0.496816,0.4613285 0.745223,1.0823475 0.266151,0.621019 0.266151,1.330755 v 0.4258416 q 0,0.7629663 -0.408098,1.4372155 -0.408098,0.6565058 -1.259781,1.0113738 v 0.3193812 q 0.621019,0.070974 0.975887,0.4790718 0.372611,0.4080983 0.372611,1.0291173 z M 5.7540637,7.9740767 h 2.2356684 q 0.8516833,0 1.2952683,-0.3903548 0.443585,-0.4080982 0.443585,-1.1355777 V 6.2352234 q 0,-0.621019 -0.443585,-1.064604 Q 8.8414154,4.709291 7.9897321,4.709291 H 5.7540637 Z"
         id="path1229" />
      <path
         d="m 20.534308,6.2707102 q 0,-0.7452228 -0.585532,-1.2952682 -0.567789,-0.5500454 -1.61465,-0.5500454 -0.88717,0 -1.401729,0.3726114 -0.514558,0.354868 -0.514558,0.975887 0,0.3193812 0.124204,0.5855322 0.124203,0.2484076 0.425841,0.4613285 0.319381,0.1951774 0.816197,0.354868 0.514558,0.1596906 1.295268,0.3016378 1.951774,0.354868 2.980891,1.1888078 1.029117,0.8339398 1.029117,2.4663327 v 0.212921 q 0,0.869426 -0.319381,1.579162 -0.301638,0.691993 -0.88717,1.188808 -0.585532,0.496816 -1.419472,0.762967 -0.83394,0.266151 -1.8808,0.266151 -1.224295,0 -2.164695,-0.337125 -0.922657,-0.354868 -1.543676,-0.958144 -0.621019,-0.621019 -0.9404,-1.437215 -0.319382,-0.83394 -0.319382,-1.809827 v -0.532302 h 2.342129 v 0.425842 q 0,1.117834 0.638763,1.792083 0.656506,0.656506 2.022747,0.656506 1.064604,0 1.579163,-0.461329 0.514559,-0.461328 0.514559,-1.10009 0,-0.301638 -0.106461,-0.567789 Q 20.498821,10.529126 20.23267,10.316206 19.966519,10.085541 19.50519,9.9081074 19.043862,9.7306733 18.334126,9.6064695 17.393726,9.4467789 16.613016,9.1983713 15.832307,8.9322203 15.246774,8.5063787 14.678986,8.0805371 14.359604,7.4417747 14.040223,6.8030123 14.040223,5.8803554 V 5.773895 q 0,-0.7629662 0.301638,-1.4017286 0.319381,-0.6565058 0.869427,-1.1355777 0.567788,-0.4790718 1.348498,-0.7452228 0.798453,-0.266151 1.77434,-0.266151 1.100091,0 1.951774,0.3193812 0.851683,0.3016378 1.419472,0.8339398 0.585532,0.5323021 0.869427,1.2242947 0.301638,0.6919926 0.301638,1.4549588 v 0.6387624 h -2.342129 z"
         id="path1231" />
      <path
         d="m 2.5070214,17.555513 h 4.1164689 l 0.709736,9.333029 v 1.809827 H 7.7590679 V 26.888542 L 8.468804,17.555513 h 4.116469 v 12.420381 h -2.129208 v -8.303912 l 0.212921,-2.838944 H 10.243144 L 9.3204872,29.975894 H 5.8072939 L 4.8491502,18.833038 H 4.4233086 l 0.2129208,2.838944 v 8.303912 h -2.129208 z"
         id="path1233" />
      <path
         d="m 20.534308,21.352601 q 0,-0.745223 -0.585532,-1.295268 -0.567789,-0.550046 -1.61465,-0.550046 -0.88717,0 -1.401729,0.372612 -0.514558,0.354868 -0.514558,0.975887 0,0.319381 0.124204,0.585532 0.124203,0.248408 0.425841,0.461329 0.319381,0.195177 0.816197,0.354868 0.514558,0.15969 1.295268,0.301637 1.951774,0.354868 2.980891,1.188808 1.029117,0.83394 1.029117,2.466333 v 0.212921 q 0,0.869426 -0.319381,1.579162 -0.301638,0.691993 -0.88717,1.188808 -0.585532,0.496815 -1.419472,0.762966 -0.83394,0.266151 -1.8808,0.266151 -1.224295,0 -2.164695,-0.337124 -0.922657,-0.354868 -1.543676,-0.958144 -0.621019,-0.621019 -0.9404,-1.437215 -0.319382,-0.83394 -0.319382,-1.809827 v -0.532302 h 2.342129 v 0.425841 q 0,1.117835 0.638763,1.792084 0.656506,0.656506 2.022747,0.656506 1.064604,0 1.579163,-0.461329 0.514559,-0.461328 0.514559,-1.10009 0,-0.301638 -0.106461,-0.567789 -0.10646,-0.283895 -0.372611,-0.496816 -0.266151,-0.230664 -0.72748,-0.408098 -0.461328,-0.177434 -1.171064,-0.301638 -0.9404,-0.15969 -1.72111,-0.408098 -0.780709,-0.266151 -1.366242,-0.691992 -0.567788,-0.425842 -0.88717,-1.064604 -0.319381,-0.638763 -0.319381,-1.56142 v -0.10646 q 0,-0.762966 0.301638,-1.401729 0.319381,-0.656506 0.869427,-1.135577 0.567788,-0.479072 1.348498,-0.745223 0.798453,-0.266151 1.77434,-0.266151 1.100091,0 1.951774,0.319381 0.851683,0.301638 1.419472,0.83394 0.585532,0.532302 0.869427,1.224294 0.301638,0.691993 0.301638,1.454959 v 0.638763 h -2.342129 z"
         id="path1235" />
    </g>
  </g>
</svg>
